<mxfile host="app.diagrams.net" modified="2022-01-05T06:34:07.541Z" agent="5.0 (Windows NT 10.0; Win64; x64) AppleWebKit/537.36 (KHTML, like Gecko) Chrome/96.0.4664.110 Safari/537.36 Edg/96.0.1054.62" etag="raxoC1xcNRCfmBdaOkwG" version="16.1.0" type="github">
  <diagram name="Page-1" id="7e0a89b8-554c-2b80-1dc8-d5c74ca68de4">
    <mxGraphModel dx="1896" dy="1059" grid="1" gridSize="10" guides="1" tooltips="1" connect="1" arrows="1" fold="1" page="1" pageScale="1" pageWidth="1100" pageHeight="850" background="none" math="0" shadow="0">
      <root>
        <mxCell id="0" />
        <mxCell id="1" parent="0" />
        <mxCell id="feGtU5ZcAYylaaCtLsXj-39" style="edgeStyle=orthogonalEdgeStyle;rounded=0;orthogonalLoop=1;jettySize=auto;html=1;exitX=0;exitY=0.5;exitDx=0;exitDy=0;exitPerimeter=0;entryX=0;entryY=0.5;entryDx=0;entryDy=0;entryPerimeter=0;endArrow=none;endFill=0;fontFamily=Times New Roman;fontSize=18;horizontal=0;labelPosition=center;verticalLabelPosition=top;align=center;verticalAlign=bottom;" parent="1" target="feGtU5ZcAYylaaCtLsXj-42" edge="1">
          <mxGeometry relative="1" as="geometry">
            <mxPoint x="1010" y="445" as="sourcePoint" />
          </mxGeometry>
        </mxCell>
        <mxCell id="feGtU5ZcAYylaaCtLsXj-65" style="edgeStyle=orthogonalEdgeStyle;rounded=0;orthogonalLoop=1;jettySize=auto;html=1;exitX=1;exitY=0.5;exitDx=0;exitDy=0;exitPerimeter=0;fontFamily=Times New Roman;fontSize=18;endArrow=none;endFill=0;labelPosition=center;verticalLabelPosition=top;align=center;verticalAlign=bottom;" parent="1" edge="1">
          <mxGeometry relative="1" as="geometry">
            <mxPoint x="910" y="414" as="targetPoint" />
            <mxPoint x="930" y="445" as="sourcePoint" />
            <Array as="points">
              <mxPoint x="910" y="445" />
              <mxPoint x="910" y="421" />
            </Array>
          </mxGeometry>
        </mxCell>
        <mxCell id="feGtU5ZcAYylaaCtLsXj-41" style="edgeStyle=orthogonalEdgeStyle;rounded=0;orthogonalLoop=1;jettySize=auto;html=1;exitX=1;exitY=0.5;exitDx=0;exitDy=0;exitPerimeter=0;entryX=0;entryY=0.5;entryDx=0;entryDy=0;entryPerimeter=0;endArrow=none;endFill=0;fontFamily=Times New Roman;fontSize=18;horizontal=0;labelPosition=center;verticalLabelPosition=top;align=center;verticalAlign=bottom;" parent="1" source="feGtU5ZcAYylaaCtLsXj-42" target="feGtU5ZcAYylaaCtLsXj-44" edge="1">
          <mxGeometry relative="1" as="geometry" />
        </mxCell>
        <mxCell id="feGtU5ZcAYylaaCtLsXj-42" value="50" style="pointerEvents=1;verticalLabelPosition=bottom;shadow=0;dashed=0;align=left;html=1;verticalAlign=top;shape=mxgraph.electrical.resistors.resistor_2;rotation=90;fontFamily=Times New Roman;fontSize=18;labelPosition=right;horizontal=0;" parent="1" vertex="1">
          <mxGeometry x="985" y="470" width="60" height="10" as="geometry" />
        </mxCell>
        <mxCell id="feGtU5ZcAYylaaCtLsXj-43" style="edgeStyle=orthogonalEdgeStyle;rounded=0;orthogonalLoop=1;jettySize=auto;html=1;exitX=1;exitY=0.5;exitDx=0;exitDy=0;exitPerimeter=0;entryX=0;entryY=0.5;entryDx=0;entryDy=0;entryPerimeter=0;endArrow=none;endFill=0;fontFamily=Times New Roman;fontSize=18;horizontal=0;labelPosition=center;verticalLabelPosition=top;align=center;verticalAlign=bottom;" parent="1" source="feGtU5ZcAYylaaCtLsXj-44" edge="1">
          <mxGeometry relative="1" as="geometry">
            <mxPoint x="1010" y="630" as="targetPoint" />
          </mxGeometry>
        </mxCell>
        <mxCell id="feGtU5ZcAYylaaCtLsXj-44" value="50" style="pointerEvents=1;verticalLabelPosition=bottom;shadow=0;dashed=0;align=left;html=1;verticalAlign=top;shape=mxgraph.electrical.resistors.resistor_2;rotation=90;fontFamily=Times New Roman;fontSize=18;horizontal=0;labelPosition=right;" parent="1" vertex="1">
          <mxGeometry x="980" y="565" width="70" height="10" as="geometry" />
        </mxCell>
        <mxCell id="feGtU5ZcAYylaaCtLsXj-45" style="edgeStyle=orthogonalEdgeStyle;rounded=0;orthogonalLoop=1;jettySize=auto;html=1;exitX=1;exitY=1;exitDx=0;exitDy=0;exitPerimeter=0;entryX=1;entryY=0.5;entryDx=0;entryDy=0;entryPerimeter=0;endArrow=none;endFill=0;fontFamily=Times New Roman;fontSize=18;labelPosition=center;verticalLabelPosition=top;align=center;verticalAlign=bottom;" parent="1" source="feGtU5ZcAYylaaCtLsXj-48" edge="1">
          <mxGeometry relative="1" as="geometry">
            <Array as="points">
              <mxPoint x="865" y="630" />
            </Array>
            <mxPoint x="930" y="630" as="targetPoint" />
          </mxGeometry>
        </mxCell>
        <mxCell id="feGtU5ZcAYylaaCtLsXj-47" style="edgeStyle=orthogonalEdgeStyle;rounded=0;orthogonalLoop=1;jettySize=auto;html=1;fontFamily=Times New Roman;fontSize=18;endArrow=none;endFill=0;labelPosition=center;verticalLabelPosition=top;align=center;verticalAlign=bottom;" parent="1" edge="1">
          <mxGeometry relative="1" as="geometry">
            <mxPoint x="635" y="648" as="targetPoint" />
            <Array as="points" />
            <mxPoint x="750" y="648" as="sourcePoint" />
          </mxGeometry>
        </mxCell>
        <mxCell id="feGtU5ZcAYylaaCtLsXj-67" style="edgeStyle=orthogonalEdgeStyle;rounded=0;orthogonalLoop=1;jettySize=auto;html=1;exitX=0;exitY=1;exitDx=0;exitDy=0;exitPerimeter=0;fontFamily=Times New Roman;fontSize=18;endArrow=none;endFill=0;labelPosition=center;verticalLabelPosition=top;align=center;verticalAlign=bottom;" parent="1" source="feGtU5ZcAYylaaCtLsXj-48" edge="1">
          <mxGeometry relative="1" as="geometry">
            <mxPoint x="750" y="648.1739130434783" as="targetPoint" />
          </mxGeometry>
        </mxCell>
        <mxCell id="feGtU5ZcAYylaaCtLsXj-71" style="edgeStyle=orthogonalEdgeStyle;rounded=0;orthogonalLoop=1;jettySize=auto;html=1;exitX=1;exitY=1;exitDx=0;exitDy=0;exitPerimeter=0;fontFamily=Times New Roman;fontSize=18;endArrow=none;endFill=0;labelPosition=center;verticalLabelPosition=top;align=center;verticalAlign=bottom;" parent="1" source="feGtU5ZcAYylaaCtLsXj-48" edge="1">
          <mxGeometry relative="1" as="geometry">
            <mxPoint x="1050" y="648" as="targetPoint" />
            <Array as="points">
              <mxPoint x="1050" y="648" />
            </Array>
          </mxGeometry>
        </mxCell>
        <mxCell id="feGtU5ZcAYylaaCtLsXj-48" value="25uH" style="pointerEvents=1;verticalLabelPosition=top;shadow=0;dashed=0;align=center;html=1;verticalAlign=bottom;shape=mxgraph.electrical.inductors.inductor_3;fontFamily=Times New Roman;fontSize=18;rotation=0;labelPosition=center;" parent="1" vertex="1">
          <mxGeometry x="765" y="640" width="100" height="8" as="geometry" />
        </mxCell>
        <mxCell id="feGtU5ZcAYylaaCtLsXj-49" style="edgeStyle=orthogonalEdgeStyle;rounded=0;orthogonalLoop=1;jettySize=auto;html=1;exitX=1;exitY=1;exitDx=0;exitDy=0;exitPerimeter=0;entryX=0;entryY=0.5;entryDx=0;entryDy=0;entryPerimeter=0;endArrow=none;endFill=0;fontFamily=Times New Roman;fontSize=18;labelPosition=center;verticalLabelPosition=top;align=center;verticalAlign=bottom;" parent="1" source="feGtU5ZcAYylaaCtLsXj-52" edge="1">
          <mxGeometry relative="1" as="geometry">
            <Array as="points">
              <mxPoint x="885" y="417" />
            </Array>
            <mxPoint x="955" y="417" as="targetPoint" />
          </mxGeometry>
        </mxCell>
        <mxCell id="feGtU5ZcAYylaaCtLsXj-51" style="edgeStyle=orthogonalEdgeStyle;rounded=0;orthogonalLoop=1;jettySize=auto;html=1;exitX=0;exitY=1;exitDx=0;exitDy=0;exitPerimeter=0;fontFamily=Times New Roman;fontSize=18;endArrow=none;endFill=0;labelPosition=center;verticalLabelPosition=top;align=center;verticalAlign=bottom;" parent="1" source="feGtU5ZcAYylaaCtLsXj-52" edge="1">
          <mxGeometry relative="1" as="geometry">
            <mxPoint x="635" y="417" as="targetPoint" />
            <Array as="points">
              <mxPoint x="725" y="417" />
              <mxPoint x="725" y="417" />
            </Array>
          </mxGeometry>
        </mxCell>
        <mxCell id="feGtU5ZcAYylaaCtLsXj-52" value="25uH" style="pointerEvents=1;verticalLabelPosition=bottom;shadow=0;dashed=0;align=center;html=1;verticalAlign=top;shape=mxgraph.electrical.inductors.inductor_3;fontFamily=Times New Roman;fontSize=18;labelPosition=center;" parent="1" vertex="1">
          <mxGeometry x="765" y="410" width="100" height="7" as="geometry" />
        </mxCell>
        <mxCell id="feGtU5ZcAYylaaCtLsXj-56" style="edgeStyle=orthogonalEdgeStyle;rounded=0;orthogonalLoop=1;jettySize=auto;html=1;exitX=0;exitY=0.5;exitDx=0;exitDy=0;exitPerimeter=0;endArrow=none;endFill=0;fontFamily=Times New Roman;fontSize=18;entryX=0.5;entryY=0;entryDx=0;entryDy=0;entryPerimeter=0;labelPosition=center;verticalLabelPosition=top;align=center;verticalAlign=bottom;" parent="1" source="feGtU5ZcAYylaaCtLsXj-64" target="feGtU5ZcAYylaaCtLsXj-59" edge="1">
          <mxGeometry relative="1" as="geometry">
            <mxPoint x="955" y="517" as="sourcePoint" />
            <mxPoint x="800" y="560" as="targetPoint" />
            <Array as="points">
              <mxPoint x="773" y="527" />
            </Array>
          </mxGeometry>
        </mxCell>
        <mxCell id="feGtU5ZcAYylaaCtLsXj-57" style="edgeStyle=orthogonalEdgeStyle;rounded=0;orthogonalLoop=1;jettySize=auto;html=1;exitX=0;exitY=0.5;exitDx=0;exitDy=0;exitPerimeter=0;endArrow=none;endFill=0;fontFamily=Times New Roman;fontSize=18;horizontal=0;labelPosition=center;verticalLabelPosition=top;align=center;verticalAlign=bottom;" parent="1" edge="1">
          <mxGeometry relative="1" as="geometry">
            <mxPoint x="1050" y="417" as="targetPoint" />
            <mxPoint x="955" y="417" as="sourcePoint" />
          </mxGeometry>
        </mxCell>
        <mxCell id="feGtU5ZcAYylaaCtLsXj-59" value="" style="pointerEvents=1;verticalLabelPosition=top;shadow=0;dashed=0;align=center;html=1;verticalAlign=bottom;shape=mxgraph.electrical.signal_sources.signal_ground;fontFamily=Times New Roman;fontSize=18;labelPosition=center;" parent="1" vertex="1">
          <mxGeometry x="750" y="560" width="45" height="31" as="geometry" />
        </mxCell>
        <mxCell id="feGtU5ZcAYylaaCtLsXj-70" style="edgeStyle=orthogonalEdgeStyle;rounded=0;orthogonalLoop=1;jettySize=auto;html=1;exitX=0.5;exitY=0;exitDx=0;exitDy=0;exitPerimeter=0;entryX=0;entryY=0.5;entryDx=0;entryDy=0;entryPerimeter=0;fontFamily=Times New Roman;fontSize=18;endArrow=none;endFill=0;labelPosition=center;verticalLabelPosition=top;align=center;verticalAlign=bottom;" parent="1" source="feGtU5ZcAYylaaCtLsXj-61" target="feGtU5ZcAYylaaCtLsXj-44" edge="1">
          <mxGeometry relative="1" as="geometry">
            <Array as="points">
              <mxPoint x="883" y="530" />
              <mxPoint x="1015" y="530" />
            </Array>
          </mxGeometry>
        </mxCell>
        <mxCell id="feGtU5ZcAYylaaCtLsXj-61" value="" style="pointerEvents=1;verticalLabelPosition=top;shadow=0;dashed=0;align=center;html=1;verticalAlign=bottom;shape=mxgraph.electrical.signal_sources.signal_ground;fontFamily=Times New Roman;fontSize=18;labelPosition=center;" parent="1" vertex="1">
          <mxGeometry x="860" y="561" width="45" height="30" as="geometry" />
        </mxCell>
        <mxCell id="feGtU5ZcAYylaaCtLsXj-69" style="edgeStyle=orthogonalEdgeStyle;rounded=0;orthogonalLoop=1;jettySize=auto;html=1;exitX=0;exitY=0.5;exitDx=0;exitDy=0;exitPerimeter=0;fontFamily=Times New Roman;fontSize=18;endArrow=none;endFill=0;labelPosition=center;verticalLabelPosition=top;align=center;verticalAlign=bottom;" parent="1" source="feGtU5ZcAYylaaCtLsXj-63" edge="1">
          <mxGeometry relative="1" as="geometry">
            <mxPoint x="670.2608695652175" y="420" as="targetPoint" />
          </mxGeometry>
        </mxCell>
        <mxCell id="feGtU5ZcAYylaaCtLsXj-63" value="1uF" style="pointerEvents=1;verticalLabelPosition=top;shadow=0;dashed=0;align=center;html=1;verticalAlign=bottom;shape=mxgraph.electrical.capacitors.capacitor_1;rotation=90;horizontal=0;labelPosition=center;fontFamily=Times New Roman;fontSize=18;" parent="1" vertex="1">
          <mxGeometry x="620" y="455" width="100" height="40" as="geometry" />
        </mxCell>
        <mxCell id="feGtU5ZcAYylaaCtLsXj-68" style="edgeStyle=orthogonalEdgeStyle;rounded=0;orthogonalLoop=1;jettySize=auto;html=1;exitX=1;exitY=0.5;exitDx=0;exitDy=0;exitPerimeter=0;fontFamily=Times New Roman;fontSize=18;endArrow=none;endFill=0;labelPosition=center;verticalLabelPosition=top;align=center;verticalAlign=bottom;" parent="1" source="feGtU5ZcAYylaaCtLsXj-64" edge="1">
          <mxGeometry relative="1" as="geometry">
            <mxPoint x="670.2608695652175" y="650" as="targetPoint" />
          </mxGeometry>
        </mxCell>
        <mxCell id="feGtU5ZcAYylaaCtLsXj-64" value="1uF" style="pointerEvents=1;verticalLabelPosition=top;shadow=0;dashed=0;align=center;html=1;verticalAlign=bottom;shape=mxgraph.electrical.capacitors.capacitor_1;rotation=90;labelPosition=center;horizontal=0;fontFamily=Times New Roman;fontSize=18;" parent="1" vertex="1">
          <mxGeometry x="620" y="557.5" width="100" height="39" as="geometry" />
        </mxCell>
        <mxCell id="feGtU5ZcAYylaaCtLsXj-72" value="0.1uF" style="pointerEvents=1;verticalLabelPosition=bottom;shadow=0;dashed=0;align=center;html=1;verticalAlign=top;shape=mxgraph.electrical.capacitors.capacitor_1;rotation=0;fontFamily=Times New Roman;fontSize=18;horizontal=1;labelPosition=center;" parent="1" vertex="1">
          <mxGeometry x="930" y="435" width="80" height="20" as="geometry" />
        </mxCell>
        <mxCell id="feGtU5ZcAYylaaCtLsXj-73" value="0.1uF" style="pointerEvents=1;verticalLabelPosition=top;shadow=0;dashed=0;align=center;html=1;verticalAlign=bottom;shape=mxgraph.electrical.capacitors.capacitor_1;rotation=0;fontFamily=Times New Roman;fontSize=18;horizontal=1;labelPosition=center;" parent="1" vertex="1">
          <mxGeometry x="930" y="620" width="80" height="20" as="geometry" />
        </mxCell>
        <mxCell id="feGtU5ZcAYylaaCtLsXj-141" style="edgeStyle=orthogonalEdgeStyle;rounded=0;jumpStyle=arc;orthogonalLoop=1;jettySize=auto;html=1;exitX=1;exitY=0.5;exitDx=0;exitDy=0;exitPerimeter=0;fontFamily=Times New Roman;fontSize=18;endArrow=none;endFill=0;" parent="1" source="feGtU5ZcAYylaaCtLsXj-74" edge="1">
          <mxGeometry relative="1" as="geometry">
            <mxPoint x="120.16666666666674" y="340" as="targetPoint" />
          </mxGeometry>
        </mxCell>
        <mxCell id="feGtU5ZcAYylaaCtLsXj-74" value="50&lt;b style=&quot;font-family: &amp;#34;verdana&amp;#34; ; font-size: 12px ; background-color: rgb(248 , 249 , 250)&quot;&gt;Ω&lt;/b&gt;" style="pointerEvents=1;verticalLabelPosition=top;shadow=0;dashed=0;align=center;html=1;verticalAlign=bottom;shape=mxgraph.electrical.resistors.resistor_2;rotation=90;fontFamily=Times New Roman;fontSize=18;labelPosition=center;horizontal=0;" parent="1" vertex="1">
          <mxGeometry x="95" y="282.5" width="50" height="10" as="geometry" />
        </mxCell>
        <mxCell id="feGtU5ZcAYylaaCtLsXj-140" style="edgeStyle=orthogonalEdgeStyle;rounded=0;jumpStyle=arc;orthogonalLoop=1;jettySize=auto;html=1;exitX=1;exitY=0.5;exitDx=0;exitDy=0;exitPerimeter=0;fontFamily=Times New Roman;fontSize=18;endArrow=none;endFill=0;" parent="1" source="feGtU5ZcAYylaaCtLsXj-75" edge="1">
          <mxGeometry relative="1" as="geometry">
            <mxPoint x="160.16666666666674" y="340" as="targetPoint" />
          </mxGeometry>
        </mxCell>
        <mxCell id="feGtU5ZcAYylaaCtLsXj-75" value="50&lt;b style=&quot;font-family: &amp;#34;verdana&amp;#34; ; font-size: 12px ; background-color: rgb(248 , 249 , 250)&quot;&gt;Ω&lt;/b&gt;" style="pointerEvents=1;verticalLabelPosition=top;shadow=0;dashed=0;align=center;html=1;verticalAlign=bottom;shape=mxgraph.electrical.resistors.resistor_2;rotation=90;fontFamily=Times New Roman;fontSize=18;horizontal=0;labelPosition=center;" parent="1" vertex="1">
          <mxGeometry x="132.5" y="287.5" width="55" height="10" as="geometry" />
        </mxCell>
        <mxCell id="feGtU5ZcAYylaaCtLsXj-86" style="edgeStyle=orthogonalEdgeStyle;rounded=0;orthogonalLoop=1;jettySize=auto;html=1;exitX=0;exitY=0.5;exitDx=0;exitDy=0;exitPerimeter=0;fontFamily=Times New Roman;fontSize=18;endArrow=none;endFill=0;" parent="1" source="feGtU5ZcAYylaaCtLsXj-76" edge="1">
          <mxGeometry relative="1" as="geometry">
            <mxPoint x="120.29629629629619" y="210.1851851851851" as="targetPoint" />
          </mxGeometry>
        </mxCell>
        <mxCell id="feGtU5ZcAYylaaCtLsXj-91" style="edgeStyle=orthogonalEdgeStyle;rounded=0;orthogonalLoop=1;jettySize=auto;html=1;exitX=0;exitY=0.5;exitDx=0;exitDy=0;exitPerimeter=0;fontFamily=Times New Roman;fontSize=18;endArrow=none;endFill=0;jumpStyle=arc;" parent="1" source="feGtU5ZcAYylaaCtLsXj-76" target="feGtU5ZcAYylaaCtLsXj-79" edge="1">
          <mxGeometry relative="1" as="geometry">
            <Array as="points">
              <mxPoint x="255" y="210" />
            </Array>
          </mxGeometry>
        </mxCell>
        <mxCell id="feGtU5ZcAYylaaCtLsXj-76" value="C&lt;sub&gt;LISN&lt;/sub&gt;" style="pointerEvents=1;verticalLabelPosition=top;shadow=0;dashed=0;align=center;html=1;verticalAlign=bottom;shape=mxgraph.electrical.capacitors.capacitor_1;rotation=90;fontFamily=Times New Roman;fontSize=18;horizontal=0;labelPosition=center;" parent="1" vertex="1">
          <mxGeometry x="90" y="230" width="60" height="20" as="geometry" />
        </mxCell>
        <mxCell id="feGtU5ZcAYylaaCtLsXj-83" style="edgeStyle=orthogonalEdgeStyle;rounded=0;orthogonalLoop=1;jettySize=auto;html=1;exitX=0;exitY=0.5;exitDx=0;exitDy=0;exitPerimeter=0;fontFamily=Times New Roman;fontSize=18;endArrow=none;endFill=0;jumpStyle=arc;" parent="1" source="feGtU5ZcAYylaaCtLsXj-77" edge="1">
          <mxGeometry relative="1" as="geometry">
            <mxPoint x="50" y="179.81481481481478" as="targetPoint" />
            <Array as="points">
              <mxPoint x="130" y="180" />
              <mxPoint x="130" y="180" />
            </Array>
          </mxGeometry>
        </mxCell>
        <mxCell id="feGtU5ZcAYylaaCtLsXj-77" value="C&lt;sub&gt;LISN&lt;/sub&gt;" style="pointerEvents=1;verticalLabelPosition=top;shadow=0;dashed=0;align=center;html=1;verticalAlign=bottom;shape=mxgraph.electrical.capacitors.capacitor_1;rotation=90;fontFamily=Times New Roman;fontSize=18;horizontal=0;labelPosition=center;" parent="1" vertex="1">
          <mxGeometry x="130" y="235" width="60" height="20" as="geometry" />
        </mxCell>
        <mxCell id="feGtU5ZcAYylaaCtLsXj-89" style="edgeStyle=orthogonalEdgeStyle;rounded=0;orthogonalLoop=1;jettySize=auto;html=1;exitX=0;exitY=0.5;exitDx=0;exitDy=0;exitPerimeter=0;entryX=0;entryY=0.5;entryDx=0;entryDy=0;entryPerimeter=0;fontFamily=Times New Roman;fontSize=18;endArrow=none;endFill=0;jumpStyle=arc;" parent="1" source="feGtU5ZcAYylaaCtLsXj-78" target="feGtU5ZcAYylaaCtLsXj-77" edge="1">
          <mxGeometry relative="1" as="geometry">
            <Array as="points">
              <mxPoint x="215" y="180" />
            </Array>
          </mxGeometry>
        </mxCell>
        <mxCell id="feGtU5ZcAYylaaCtLsXj-90" style="edgeStyle=orthogonalEdgeStyle;rounded=0;orthogonalLoop=1;jettySize=auto;html=1;exitX=0;exitY=0.5;exitDx=0;exitDy=0;exitPerimeter=0;entryX=1;entryY=0.5;entryDx=0;entryDy=0;entryPerimeter=0;fontFamily=Times New Roman;fontSize=18;endArrow=none;endFill=0;jumpStyle=arc;" parent="1" source="feGtU5ZcAYylaaCtLsXj-78" target="feGtU5ZcAYylaaCtLsXj-80" edge="1">
          <mxGeometry relative="1" as="geometry" />
        </mxCell>
        <mxCell id="feGtU5ZcAYylaaCtLsXj-92" style="edgeStyle=orthogonalEdgeStyle;rounded=0;jumpStyle=arc;orthogonalLoop=1;jettySize=auto;html=1;exitX=1;exitY=0.5;exitDx=0;exitDy=0;exitPerimeter=0;fontFamily=Times New Roman;fontSize=18;endArrow=none;endFill=0;" parent="1" source="feGtU5ZcAYylaaCtLsXj-78" edge="1">
          <mxGeometry relative="1" as="geometry">
            <mxPoint x="380" y="130" as="targetPoint" />
            <Array as="points">
              <mxPoint x="250" y="130" />
              <mxPoint x="250" y="130" />
            </Array>
          </mxGeometry>
        </mxCell>
        <mxCell id="feGtU5ZcAYylaaCtLsXj-78" value="" style="pointerEvents=1;fillColor=strokeColor;verticalLabelPosition=bottom;shadow=0;dashed=0;align=center;html=1;verticalAlign=top;shape=mxgraph.electrical.diodes.diode;fontFamily=Times New Roman;fontSize=18;rotation=-90;" parent="1" vertex="1">
          <mxGeometry x="195" y="140" width="40" height="20" as="geometry" />
        </mxCell>
        <mxCell id="feGtU5ZcAYylaaCtLsXj-79" value="" style="pointerEvents=1;fillColor=strokeColor;verticalLabelPosition=bottom;shadow=0;dashed=0;align=center;html=1;verticalAlign=top;shape=mxgraph.electrical.diodes.diode;fontFamily=Times New Roman;fontSize=18;rotation=-90;" parent="1" vertex="1">
          <mxGeometry x="235" y="140" width="40" height="20" as="geometry" />
        </mxCell>
        <mxCell id="feGtU5ZcAYylaaCtLsXj-93" style="edgeStyle=orthogonalEdgeStyle;rounded=0;jumpStyle=arc;orthogonalLoop=1;jettySize=auto;html=1;exitX=0;exitY=0.5;exitDx=0;exitDy=0;exitPerimeter=0;fontFamily=Times New Roman;fontSize=18;endArrow=none;endFill=0;" parent="1" source="feGtU5ZcAYylaaCtLsXj-80" edge="1">
          <mxGeometry relative="1" as="geometry">
            <mxPoint x="280" y="260" as="targetPoint" />
            <Array as="points">
              <mxPoint x="215" y="320" />
              <mxPoint x="280" y="320" />
            </Array>
          </mxGeometry>
        </mxCell>
        <mxCell id="feGtU5ZcAYylaaCtLsXj-80" value="" style="pointerEvents=1;fillColor=strokeColor;verticalLabelPosition=bottom;shadow=0;dashed=0;align=center;html=1;verticalAlign=top;shape=mxgraph.electrical.diodes.diode;fontFamily=Times New Roman;fontSize=18;rotation=-90;" parent="1" vertex="1">
          <mxGeometry x="195" y="230" width="40" height="20" as="geometry" />
        </mxCell>
        <mxCell id="feGtU5ZcAYylaaCtLsXj-88" style="edgeStyle=orthogonalEdgeStyle;rounded=0;orthogonalLoop=1;jettySize=auto;html=1;exitX=1;exitY=0.5;exitDx=0;exitDy=0;exitPerimeter=0;entryX=0;entryY=0.5;entryDx=0;entryDy=0;entryPerimeter=0;fontFamily=Times New Roman;fontSize=18;endArrow=none;endFill=0;" parent="1" source="feGtU5ZcAYylaaCtLsXj-81" target="feGtU5ZcAYylaaCtLsXj-79" edge="1">
          <mxGeometry relative="1" as="geometry" />
        </mxCell>
        <mxCell id="feGtU5ZcAYylaaCtLsXj-97" style="edgeStyle=orthogonalEdgeStyle;rounded=0;jumpStyle=arc;orthogonalLoop=1;jettySize=auto;html=1;exitX=0;exitY=0.5;exitDx=0;exitDy=0;exitPerimeter=0;fontFamily=Times New Roman;fontSize=18;endArrow=none;endFill=0;" parent="1" source="feGtU5ZcAYylaaCtLsXj-81" edge="1">
          <mxGeometry relative="1" as="geometry">
            <mxPoint x="255" y="320" as="targetPoint" />
          </mxGeometry>
        </mxCell>
        <mxCell id="feGtU5ZcAYylaaCtLsXj-81" value="" style="pointerEvents=1;fillColor=strokeColor;verticalLabelPosition=bottom;shadow=0;dashed=0;align=center;html=1;verticalAlign=top;shape=mxgraph.electrical.diodes.diode;fontFamily=Times New Roman;fontSize=18;rotation=-90;" parent="1" vertex="1">
          <mxGeometry x="235" y="230" width="40" height="20" as="geometry" />
        </mxCell>
        <mxCell id="feGtU5ZcAYylaaCtLsXj-82" value="" style="endArrow=none;html=1;rounded=0;fontFamily=Times New Roman;fontSize=18;entryX=0;entryY=0.5;entryDx=0;entryDy=0;entryPerimeter=0;" parent="1" target="feGtU5ZcAYylaaCtLsXj-76" edge="1">
          <mxGeometry width="50" height="50" relative="1" as="geometry">
            <mxPoint x="50" y="210" as="sourcePoint" />
            <mxPoint x="450" y="290" as="targetPoint" />
          </mxGeometry>
        </mxCell>
        <mxCell id="feGtU5ZcAYylaaCtLsXj-84" value="L" style="text;html=1;strokeColor=none;fillColor=none;align=center;verticalAlign=middle;whiteSpace=wrap;rounded=0;fontFamily=Times New Roman;fontSize=18;" parent="1" vertex="1">
          <mxGeometry x="30" y="150" width="60" height="30" as="geometry" />
        </mxCell>
        <mxCell id="feGtU5ZcAYylaaCtLsXj-85" value="N" style="text;html=1;strokeColor=none;fillColor=none;align=center;verticalAlign=middle;whiteSpace=wrap;rounded=0;fontFamily=Times New Roman;fontSize=18;" parent="1" vertex="1">
          <mxGeometry x="30" y="210" width="60" height="30" as="geometry" />
        </mxCell>
        <mxCell id="feGtU5ZcAYylaaCtLsXj-95" style="edgeStyle=orthogonalEdgeStyle;rounded=0;jumpStyle=arc;orthogonalLoop=1;jettySize=auto;html=1;exitX=0;exitY=0.5;exitDx=0;exitDy=0;exitPerimeter=0;fontFamily=Times New Roman;fontSize=18;endArrow=none;endFill=0;" parent="1" source="feGtU5ZcAYylaaCtLsXj-94" edge="1">
          <mxGeometry relative="1" as="geometry">
            <mxPoint x="279.9361702127659" y="130" as="targetPoint" />
          </mxGeometry>
        </mxCell>
        <mxCell id="feGtU5ZcAYylaaCtLsXj-96" style="edgeStyle=orthogonalEdgeStyle;rounded=0;jumpStyle=arc;orthogonalLoop=1;jettySize=auto;html=1;exitX=1;exitY=0.5;exitDx=0;exitDy=0;exitPerimeter=0;fontFamily=Times New Roman;fontSize=18;endArrow=none;endFill=0;" parent="1" source="feGtU5ZcAYylaaCtLsXj-94" edge="1">
          <mxGeometry relative="1" as="geometry">
            <mxPoint x="279.9361702127659" y="260" as="targetPoint" />
          </mxGeometry>
        </mxCell>
        <mxCell id="feGtU5ZcAYylaaCtLsXj-94" value="Cin" style="pointerEvents=1;verticalLabelPosition=bottom;shadow=0;dashed=0;align=center;html=1;verticalAlign=top;shape=mxgraph.electrical.capacitors.capacitor_1;rotation=90;fontFamily=Times New Roman;fontSize=18;horizontal=0;labelPosition=center;" parent="1" vertex="1">
          <mxGeometry x="250" y="180" width="60" height="20" as="geometry" />
        </mxCell>
        <mxCell id="feGtU5ZcAYylaaCtLsXj-102" style="edgeStyle=orthogonalEdgeStyle;rounded=0;orthogonalLoop=1;jettySize=auto;html=1;exitX=1;exitY=0.645;exitDx=0;exitDy=0;exitPerimeter=0;endArrow=none;endFill=0;" parent="1" edge="1">
          <mxGeometry relative="1" as="geometry">
            <mxPoint x="580" y="220" as="targetPoint" />
            <Array as="points">
              <mxPoint x="570" y="220" />
              <mxPoint x="570" y="220" />
            </Array>
            <mxPoint x="520.2200000000003" y="220.12" as="sourcePoint" />
          </mxGeometry>
        </mxCell>
        <mxCell id="feGtU5ZcAYylaaCtLsXj-103" style="edgeStyle=orthogonalEdgeStyle;rounded=0;orthogonalLoop=1;jettySize=auto;html=1;endArrow=none;endFill=0;exitX=0;exitY=0.645;exitDx=0;exitDy=0;exitPerimeter=0;" parent="1" source="sRxDGYlUYKqpkMH8Nx76-17" edge="1">
          <mxGeometry relative="1" as="geometry">
            <mxPoint x="581" y="109.92" as="targetPoint" />
            <Array as="points">
              <mxPoint x="484" y="110" />
              <mxPoint x="519" y="110" />
            </Array>
            <mxPoint x="519" y="109.92" as="sourcePoint" />
          </mxGeometry>
        </mxCell>
        <mxCell id="feGtU5ZcAYylaaCtLsXj-112" value="" style="endArrow=none;html=1;rounded=0;jumpStyle=arc;" parent="1" edge="1">
          <mxGeometry width="50" height="50" relative="1" as="geometry">
            <mxPoint x="519.75" y="320" as="sourcePoint" />
            <mxPoint x="520" y="320" as="targetPoint" />
          </mxGeometry>
        </mxCell>
        <mxCell id="feGtU5ZcAYylaaCtLsXj-116" style="edgeStyle=orthogonalEdgeStyle;rounded=0;jumpStyle=arc;orthogonalLoop=1;jettySize=auto;html=1;exitX=0.7;exitY=1;exitDx=0;exitDy=0;exitPerimeter=0;fontFamily=Times New Roman;fontSize=18;endArrow=none;endFill=0;" parent="1" source="feGtU5ZcAYylaaCtLsXj-114" edge="1">
          <mxGeometry relative="1" as="geometry">
            <mxPoint x="280" y="320" as="targetPoint" />
            <Array as="points">
              <mxPoint x="358" y="320" />
            </Array>
          </mxGeometry>
        </mxCell>
        <mxCell id="feGtU5ZcAYylaaCtLsXj-121" style="edgeStyle=orthogonalEdgeStyle;rounded=0;jumpStyle=arc;orthogonalLoop=1;jettySize=auto;html=1;exitX=0.7;exitY=1;exitDx=0;exitDy=0;exitPerimeter=0;fontFamily=Times New Roman;fontSize=18;endArrow=none;endFill=0;" parent="1" source="feGtU5ZcAYylaaCtLsXj-114" edge="1">
          <mxGeometry relative="1" as="geometry">
            <mxPoint x="520" y="320" as="targetPoint" />
            <Array as="points">
              <mxPoint x="358" y="320" />
            </Array>
          </mxGeometry>
        </mxCell>
        <mxCell id="feGtU5ZcAYylaaCtLsXj-114" value="" style="verticalLabelPosition=bottom;shadow=0;dashed=0;align=center;html=1;verticalAlign=top;shape=mxgraph.electrical.mosfets1.n-channel_mosfet_1;fontFamily=Times New Roman;fontSize=18;" parent="1" vertex="1">
          <mxGeometry x="330" y="255" width="40" height="40" as="geometry" />
        </mxCell>
        <mxCell id="feGtU5ZcAYylaaCtLsXj-115" value="" style="pointerEvents=1;verticalLabelPosition=bottom;shadow=0;dashed=0;align=center;html=1;verticalAlign=top;shape=mxgraph.electrical.waveforms.square_wave;fontFamily=Times New Roman;fontSize=18;" parent="1" vertex="1">
          <mxGeometry x="310" y="265" width="20" height="15" as="geometry" />
        </mxCell>
        <mxCell id="feGtU5ZcAYylaaCtLsXj-125" style="edgeStyle=orthogonalEdgeStyle;rounded=0;jumpStyle=arc;orthogonalLoop=1;jettySize=auto;html=1;exitX=0;exitY=0.5;exitDx=0;exitDy=0;exitPerimeter=0;fontFamily=Times New Roman;fontSize=18;endArrow=none;endFill=0;" parent="1" source="feGtU5ZcAYylaaCtLsXj-122" edge="1">
          <mxGeometry relative="1" as="geometry">
            <mxPoint x="500.0103092783505" y="320" as="targetPoint" />
            <Array as="points">
              <mxPoint x="469" y="320" />
            </Array>
          </mxGeometry>
        </mxCell>
        <mxCell id="feGtU5ZcAYylaaCtLsXj-122" value="" style="pointerEvents=1;verticalLabelPosition=bottom;shadow=0;dashed=0;align=center;html=1;verticalAlign=top;shape=mxgraph.electrical.resistors.resistor_1;fontFamily=Times New Roman;fontSize=18;rotation=-90;" parent="1" vertex="1">
          <mxGeometry x="453.5" y="290" width="32" height="5" as="geometry" />
        </mxCell>
        <mxCell id="feGtU5ZcAYylaaCtLsXj-129" value="" style="endArrow=none;html=1;rounded=0;fontFamily=Times New Roman;fontSize=18;jumpStyle=arc;" parent="1" edge="1">
          <mxGeometry width="50" height="50" relative="1" as="geometry">
            <mxPoint x="380" y="270" as="sourcePoint" />
            <mxPoint x="432" y="270" as="targetPoint" />
          </mxGeometry>
        </mxCell>
        <mxCell id="feGtU5ZcAYylaaCtLsXj-130" value="" style="endArrow=none;html=1;rounded=0;fontFamily=Times New Roman;fontSize=18;jumpStyle=arc;" parent="1" edge="1">
          <mxGeometry width="50" height="50" relative="1" as="geometry">
            <mxPoint x="380" y="270" as="sourcePoint" />
            <mxPoint x="380" y="130" as="targetPoint" />
          </mxGeometry>
        </mxCell>
        <mxCell id="feGtU5ZcAYylaaCtLsXj-133" style="edgeStyle=orthogonalEdgeStyle;rounded=0;jumpStyle=arc;orthogonalLoop=1;jettySize=auto;html=1;exitX=1;exitY=0.5;exitDx=0;exitDy=0;exitPerimeter=0;entryX=0;entryY=0.5;entryDx=0;entryDy=0;entryPerimeter=0;fontFamily=Times New Roman;fontSize=18;endArrow=none;endFill=0;" parent="1" source="feGtU5ZcAYylaaCtLsXj-131" target="feGtU5ZcAYylaaCtLsXj-132" edge="1">
          <mxGeometry relative="1" as="geometry" />
        </mxCell>
        <mxCell id="feGtU5ZcAYylaaCtLsXj-131" value="" style="pointerEvents=1;fillColor=strokeColor;verticalLabelPosition=bottom;shadow=0;dashed=0;align=center;html=1;verticalAlign=top;shape=mxgraph.electrical.diodes.diode;fontFamily=Times New Roman;fontSize=18;rotation=0;" parent="1" vertex="1">
          <mxGeometry x="570" y="100" width="40" height="20" as="geometry" />
        </mxCell>
        <mxCell id="feGtU5ZcAYylaaCtLsXj-134" style="edgeStyle=orthogonalEdgeStyle;rounded=0;jumpStyle=arc;orthogonalLoop=1;jettySize=auto;html=1;exitX=1;exitY=0.5;exitDx=0;exitDy=0;exitPerimeter=0;fontFamily=Times New Roman;fontSize=18;endArrow=none;endFill=0;" parent="1" source="feGtU5ZcAYylaaCtLsXj-132" edge="1">
          <mxGeometry relative="1" as="geometry">
            <mxPoint x="580" y="220" as="targetPoint" />
            <Array as="points">
              <mxPoint x="610" y="220" />
            </Array>
          </mxGeometry>
        </mxCell>
        <mxCell id="feGtU5ZcAYylaaCtLsXj-132" value="C&lt;sub&gt;out&lt;/sub&gt;" style="pointerEvents=1;verticalLabelPosition=top;shadow=0;dashed=0;align=center;html=1;verticalAlign=bottom;shape=mxgraph.electrical.capacitors.capacitor_1;rotation=90;fontFamily=Times New Roman;fontSize=18;horizontal=0;labelPosition=center;" parent="1" vertex="1">
          <mxGeometry x="580" y="150.87" width="60" height="20" as="geometry" />
        </mxCell>
        <mxCell id="feGtU5ZcAYylaaCtLsXj-136" style="edgeStyle=orthogonalEdgeStyle;rounded=0;jumpStyle=arc;orthogonalLoop=1;jettySize=auto;html=1;exitX=0;exitY=0.5;exitDx=0;exitDy=0;exitPerimeter=0;entryX=1;entryY=0.5;entryDx=0;entryDy=0;entryPerimeter=0;fontFamily=Times New Roman;fontSize=18;endArrow=none;endFill=0;" parent="1" source="feGtU5ZcAYylaaCtLsXj-135" target="feGtU5ZcAYylaaCtLsXj-131" edge="1">
          <mxGeometry relative="1" as="geometry" />
        </mxCell>
        <mxCell id="feGtU5ZcAYylaaCtLsXj-137" style="edgeStyle=orthogonalEdgeStyle;rounded=0;jumpStyle=arc;orthogonalLoop=1;jettySize=auto;html=1;exitX=1;exitY=0.5;exitDx=0;exitDy=0;exitPerimeter=0;fontFamily=Times New Roman;fontSize=18;endArrow=none;endFill=0;" parent="1" source="feGtU5ZcAYylaaCtLsXj-135" edge="1">
          <mxGeometry relative="1" as="geometry">
            <mxPoint x="610" y="220" as="targetPoint" />
            <Array as="points">
              <mxPoint x="650" y="220" />
            </Array>
          </mxGeometry>
        </mxCell>
        <mxCell id="feGtU5ZcAYylaaCtLsXj-135" value="R&lt;sub&gt;L&lt;/sub&gt;" style="pointerEvents=1;verticalLabelPosition=top;shadow=0;dashed=0;align=right;html=1;verticalAlign=bottom;shape=mxgraph.electrical.resistors.resistor_2;fontFamily=Times New Roman;fontSize=18;rotation=90;horizontal=0;labelPosition=left;" parent="1" vertex="1">
          <mxGeometry x="630" y="160" width="40" height="8" as="geometry" />
        </mxCell>
        <mxCell id="feGtU5ZcAYylaaCtLsXj-138" value="C&lt;sub&gt;TV&lt;/sub&gt;" style="pointerEvents=1;verticalLabelPosition=top;shadow=0;dashed=0;align=center;html=1;verticalAlign=bottom;shape=mxgraph.electrical.capacitors.capacitor_1;rotation=90;fontFamily=Times New Roman;fontSize=18;horizontal=0;labelPosition=center;" parent="1" vertex="1">
          <mxGeometry x="620" y="235" width="60" height="20" as="geometry" />
        </mxCell>
        <mxCell id="feGtU5ZcAYylaaCtLsXj-139" style="edgeStyle=orthogonalEdgeStyle;rounded=0;jumpStyle=arc;orthogonalLoop=1;jettySize=auto;html=1;exitX=1;exitY=0.5;exitDx=0;exitDy=0;exitPerimeter=0;fontFamily=Times New Roman;fontSize=18;endArrow=none;endFill=0;entryX=1;entryY=0.5;entryDx=0;entryDy=0;entryPerimeter=0;" parent="1" target="feGtU5ZcAYylaaCtLsXj-138" edge="1">
          <mxGeometry relative="1" as="geometry">
            <mxPoint x="60" y="340" as="sourcePoint" />
            <mxPoint x="225" y="340" as="targetPoint" />
            <Array as="points">
              <mxPoint x="650" y="340" />
            </Array>
          </mxGeometry>
        </mxCell>
        <mxCell id="feGtU5ZcAYylaaCtLsXj-143" style="edgeStyle=orthogonalEdgeStyle;rounded=0;jumpStyle=arc;orthogonalLoop=1;jettySize=auto;html=1;exitX=1;exitY=0.5;exitDx=0;exitDy=0;exitPerimeter=0;fontFamily=Times New Roman;fontSize=18;endArrow=none;endFill=0;" parent="1" source="feGtU5ZcAYylaaCtLsXj-142" edge="1">
          <mxGeometry relative="1" as="geometry">
            <mxPoint x="520" y="320" as="targetPoint" />
            <Array as="points">
              <mxPoint x="570" y="320" />
            </Array>
          </mxGeometry>
        </mxCell>
        <mxCell id="feGtU5ZcAYylaaCtLsXj-142" value="C&lt;sub&gt;y&lt;/sub&gt;" style="pointerEvents=1;verticalLabelPosition=top;shadow=0;dashed=0;align=center;html=1;verticalAlign=bottom;shape=mxgraph.electrical.capacitors.capacitor_1;rotation=90;fontFamily=Times New Roman;fontSize=18;horizontal=0;labelPosition=center;" parent="1" vertex="1">
          <mxGeometry x="540" y="240" width="60" height="20" as="geometry" />
        </mxCell>
        <mxCell id="Ojxynx3Bs77Wf192afqL-7" style="edgeStyle=orthogonalEdgeStyle;rounded=0;jumpStyle=arc;orthogonalLoop=1;jettySize=auto;html=1;exitX=1;exitY=0.5;exitDx=0;exitDy=0;exitPerimeter=0;fontFamily=Times New Roman;fontSize=18;endArrow=none;endFill=0;" parent="1" source="Ojxynx3Bs77Wf192afqL-8" edge="1">
          <mxGeometry relative="1" as="geometry">
            <mxPoint x="140.16666666666674" y="575" as="targetPoint" />
          </mxGeometry>
        </mxCell>
        <mxCell id="Ojxynx3Bs77Wf192afqL-8" value="50" style="pointerEvents=1;verticalLabelPosition=top;shadow=0;dashed=0;align=center;html=1;verticalAlign=bottom;shape=mxgraph.electrical.resistors.resistor_2;rotation=90;fontFamily=Times New Roman;fontSize=18;labelPosition=center;horizontal=0;" parent="1" vertex="1">
          <mxGeometry x="115" y="517.5" width="50" height="10" as="geometry" />
        </mxCell>
        <mxCell id="Ojxynx3Bs77Wf192afqL-9" style="edgeStyle=orthogonalEdgeStyle;rounded=0;jumpStyle=arc;orthogonalLoop=1;jettySize=auto;html=1;exitX=1;exitY=0.5;exitDx=0;exitDy=0;exitPerimeter=0;fontFamily=Times New Roman;fontSize=18;endArrow=none;endFill=0;" parent="1" source="Ojxynx3Bs77Wf192afqL-10" edge="1">
          <mxGeometry relative="1" as="geometry">
            <mxPoint x="180.16666666666674" y="575" as="targetPoint" />
          </mxGeometry>
        </mxCell>
        <mxCell id="Ojxynx3Bs77Wf192afqL-10" value="50" style="pointerEvents=1;verticalLabelPosition=top;shadow=0;dashed=0;align=center;html=1;verticalAlign=bottom;shape=mxgraph.electrical.resistors.resistor_2;rotation=90;fontFamily=Times New Roman;fontSize=18;horizontal=0;labelPosition=center;" parent="1" vertex="1">
          <mxGeometry x="152.5" y="522.5" width="55" height="10" as="geometry" />
        </mxCell>
        <mxCell id="Ojxynx3Bs77Wf192afqL-11" style="edgeStyle=orthogonalEdgeStyle;rounded=0;orthogonalLoop=1;jettySize=auto;html=1;exitX=0;exitY=0.5;exitDx=0;exitDy=0;exitPerimeter=0;fontFamily=Times New Roman;fontSize=18;endArrow=none;endFill=0;" parent="1" source="Ojxynx3Bs77Wf192afqL-12" edge="1">
          <mxGeometry relative="1" as="geometry">
            <mxPoint x="140.2962962962962" y="445.1851851851851" as="targetPoint" />
          </mxGeometry>
        </mxCell>
        <mxCell id="Ojxynx3Bs77Wf192afqL-12" value="C&lt;sub&gt;LISN&lt;/sub&gt;" style="pointerEvents=1;verticalLabelPosition=top;shadow=0;dashed=0;align=center;html=1;verticalAlign=bottom;shape=mxgraph.electrical.capacitors.capacitor_1;rotation=90;fontFamily=Times New Roman;fontSize=18;horizontal=0;labelPosition=center;" parent="1" vertex="1">
          <mxGeometry x="110" y="465" width="60" height="20" as="geometry" />
        </mxCell>
        <mxCell id="Ojxynx3Bs77Wf192afqL-16" style="edgeStyle=orthogonalEdgeStyle;rounded=0;jumpStyle=arc;orthogonalLoop=1;jettySize=auto;html=1;exitX=0;exitY=0.5;exitDx=0;exitDy=0;exitPerimeter=0;fontFamily=Times New Roman;fontSize=18;endArrow=none;endFill=0;" parent="1" source="Ojxynx3Bs77Wf192afqL-13" edge="1">
          <mxGeometry relative="1" as="geometry">
            <mxPoint x="180" y="450.1034482758621" as="targetPoint" />
          </mxGeometry>
        </mxCell>
        <mxCell id="Ojxynx3Bs77Wf192afqL-17" style="edgeStyle=orthogonalEdgeStyle;rounded=0;jumpStyle=none;orthogonalLoop=1;jettySize=auto;html=1;exitX=0;exitY=0.5;exitDx=0;exitDy=0;exitPerimeter=0;fontFamily=Times New Roman;fontSize=18;endArrow=none;endFill=0;" parent="1" source="Ojxynx3Bs77Wf192afqL-13" edge="1">
          <mxGeometry relative="1" as="geometry">
            <mxPoint x="180" y="450" as="targetPoint" />
          </mxGeometry>
        </mxCell>
        <mxCell id="Ojxynx3Bs77Wf192afqL-13" value="C&lt;sub&gt;LISN&lt;/sub&gt;" style="pointerEvents=1;verticalLabelPosition=top;shadow=0;dashed=0;align=center;html=1;verticalAlign=bottom;shape=mxgraph.electrical.capacitors.capacitor_1;rotation=90;fontFamily=Times New Roman;fontSize=18;horizontal=0;labelPosition=center;" parent="1" vertex="1">
          <mxGeometry x="150" y="465" width="60" height="20" as="geometry" />
        </mxCell>
        <mxCell id="Ojxynx3Bs77Wf192afqL-14" value="" style="endArrow=none;html=1;rounded=0;fontFamily=Times New Roman;fontSize=18;jumpStyle=arc;" parent="1" edge="1">
          <mxGeometry width="50" height="50" relative="1" as="geometry">
            <mxPoint x="140" y="575" as="sourcePoint" />
            <mxPoint x="180" y="575" as="targetPoint" />
          </mxGeometry>
        </mxCell>
        <mxCell id="Ojxynx3Bs77Wf192afqL-15" value="" style="endArrow=none;html=1;rounded=0;fontFamily=Times New Roman;fontSize=18;jumpStyle=none;" parent="1" edge="1">
          <mxGeometry width="50" height="50" relative="1" as="geometry">
            <mxPoint x="140" y="444.83" as="sourcePoint" />
            <mxPoint x="210" y="445" as="targetPoint" />
          </mxGeometry>
        </mxCell>
        <mxCell id="Ojxynx3Bs77Wf192afqL-18" value="" style="pointerEvents=1;verticalLabelPosition=bottom;shadow=0;dashed=0;align=center;html=1;verticalAlign=top;shape=mxgraph.electrical.signal_sources.source;aspect=fixed;points=[[0.5,0,0],[1,0.5,0],[0.5,1,0],[0,0.5,0]];elSignalType=ac;fontFamily=Times New Roman;fontSize=18;" parent="1" vertex="1">
          <mxGeometry x="230" y="495" width="30" height="30" as="geometry" />
        </mxCell>
        <mxCell id="sRxDGYlUYKqpkMH8Nx76-14" value="" style="pointerEvents=1;verticalLabelPosition=bottom;shadow=0;dashed=0;align=center;html=1;verticalAlign=top;shape=mxgraph.electrical.inductors.inductor_5;rotation=90;" vertex="1" parent="1">
          <mxGeometry x="397.25" y="174.95" width="75.11" height="15.14" as="geometry" />
        </mxCell>
        <mxCell id="sRxDGYlUYKqpkMH8Nx76-15" style="edgeStyle=orthogonalEdgeStyle;rounded=0;orthogonalLoop=1;jettySize=auto;html=1;exitX=1;exitY=0.645;exitDx=0;exitDy=0;exitPerimeter=0;endArrow=none;endFill=0;" edge="1" parent="1" source="sRxDGYlUYKqpkMH8Nx76-17">
          <mxGeometry relative="1" as="geometry">
            <mxPoint x="580" y="219.08999999999997" as="targetPoint" />
            <Array as="points">
              <mxPoint x="579.3899999999999" y="219.08999999999997" />
              <mxPoint x="579.3899999999999" y="269.09" />
            </Array>
          </mxGeometry>
        </mxCell>
        <mxCell id="sRxDGYlUYKqpkMH8Nx76-17" value="" style="pointerEvents=1;verticalLabelPosition=bottom;shadow=0;dashed=0;align=center;html=1;verticalAlign=top;shape=mxgraph.electrical.inductors.inductor_5;rotation=90;" vertex="1" parent="1">
          <mxGeometry x="440.75" y="168.08999999999997" width="90" height="14" as="geometry" />
        </mxCell>
        <mxCell id="sRxDGYlUYKqpkMH8Nx76-18" style="edgeStyle=orthogonalEdgeStyle;rounded=0;orthogonalLoop=1;jettySize=auto;html=1;exitX=1;exitY=0.645;exitDx=0;exitDy=0;exitPerimeter=0;endArrow=none;endFill=0;entryX=1;entryY=0.645;entryDx=0;entryDy=0;entryPerimeter=0;" edge="1" parent="1" source="sRxDGYlUYKqpkMH8Nx76-19" target="sRxDGYlUYKqpkMH8Nx76-19">
          <mxGeometry relative="1" as="geometry">
            <mxPoint x="457.5" y="199.08999999999997" as="targetPoint" />
          </mxGeometry>
        </mxCell>
        <mxCell id="sRxDGYlUYKqpkMH8Nx76-19" value="" style="pointerEvents=1;verticalLabelPosition=bottom;shadow=0;dashed=0;align=center;html=1;verticalAlign=top;shape=mxgraph.electrical.inductors.inductor_5;rotation=90;" vertex="1" parent="1">
          <mxGeometry x="434.5" y="145.08999999999997" width="50" height="14" as="geometry" />
        </mxCell>
        <mxCell id="sRxDGYlUYKqpkMH8Nx76-20" style="edgeStyle=orthogonalEdgeStyle;rounded=0;jumpStyle=arc;orthogonalLoop=1;jettySize=auto;html=1;exitX=1;exitY=1;exitDx=0;exitDy=0;exitPerimeter=0;entryX=0;entryY=0.645;entryDx=0;entryDy=0;entryPerimeter=0;endArrow=none;endFill=0;endSize=5;sourcePerimeterSpacing=6;targetPerimeterSpacing=1;" edge="1" parent="1" source="sRxDGYlUYKqpkMH8Nx76-21" target="sRxDGYlUYKqpkMH8Nx76-24">
          <mxGeometry relative="1" as="geometry">
            <Array as="points">
              <mxPoint x="398.39" y="120.09000000000006" />
            </Array>
          </mxGeometry>
        </mxCell>
        <mxCell id="sRxDGYlUYKqpkMH8Nx76-21" value="" style="pointerEvents=1;verticalLabelPosition=bottom;shadow=0;align=center;html=1;verticalAlign=top;shape=mxgraph.electrical.inductors.inductor_1;rotation=-90;strokeWidth=4;" vertex="1" parent="1">
          <mxGeometry x="351" y="172.08999999999997" width="93.5" height="1.22" as="geometry" />
        </mxCell>
        <mxCell id="sRxDGYlUYKqpkMH8Nx76-22" style="edgeStyle=orthogonalEdgeStyle;rounded=0;orthogonalLoop=1;jettySize=auto;html=1;exitX=1;exitY=0.645;exitDx=0;exitDy=0;exitPerimeter=0;endArrow=none;endFill=0;endSize=5;sourcePerimeterSpacing=6;targetPerimeterSpacing=1;jumpStyle=arc;entryX=1;entryY=0.5;entryDx=0;entryDy=0;entryPerimeter=0;" edge="1" parent="1" source="sRxDGYlUYKqpkMH8Nx76-24" target="feGtU5ZcAYylaaCtLsXj-122">
          <mxGeometry relative="1" as="geometry">
            <Array as="points">
              <mxPoint x="506" y="229" />
              <mxPoint x="470" y="229" />
            </Array>
            <mxPoint x="469" y="248" as="targetPoint" />
          </mxGeometry>
        </mxCell>
        <mxCell id="sRxDGYlUYKqpkMH8Nx76-23" style="edgeStyle=orthogonalEdgeStyle;rounded=0;orthogonalLoop=1;jettySize=auto;html=1;exitX=0;exitY=0.645;exitDx=0;exitDy=0;exitPerimeter=0;endArrow=none;endFill=0;endSize=5;sourcePerimeterSpacing=6;targetPerimeterSpacing=1;jumpStyle=arc;" edge="1" parent="1" source="sRxDGYlUYKqpkMH8Nx76-24">
          <mxGeometry relative="1" as="geometry">
            <mxPoint x="499" y="320" as="targetPoint" />
            <Array as="points">
              <mxPoint x="527" y="120" />
              <mxPoint x="527" y="239" />
              <mxPoint x="499" y="239" />
            </Array>
          </mxGeometry>
        </mxCell>
        <mxCell id="sRxDGYlUYKqpkMH8Nx76-24" value="" style="pointerEvents=1;verticalLabelPosition=bottom;shadow=0;dashed=0;align=center;html=1;verticalAlign=top;shape=mxgraph.electrical.inductors.inductor_5;rotation=90;" vertex="1" parent="1">
          <mxGeometry x="475.39" y="148.58999999999997" width="64" height="7" as="geometry" />
        </mxCell>
        <mxCell id="sRxDGYlUYKqpkMH8Nx76-25" value="" style="shape=image;html=1;verticalAlign=top;verticalLabelPosition=bottom;labelBackgroundColor=#ffffff;imageAspect=0;aspect=fixed;image=https://cdn0.iconfinder.com/data/icons/octicons/1024/primitive-dot-128.png" vertex="1" parent="1">
          <mxGeometry x="434.5" y="143.27999999999992" width="10" height="10" as="geometry" />
        </mxCell>
        <mxCell id="sRxDGYlUYKqpkMH8Nx76-26" value="" style="shape=image;html=1;verticalAlign=top;verticalLabelPosition=bottom;labelBackgroundColor=#ffffff;imageAspect=0;aspect=fixed;image=https://cdn0.iconfinder.com/data/icons/octicons/1024/primitive-dot-128.png" vertex="1" parent="1">
          <mxGeometry x="459.5" y="168.08999999999997" width="10" height="10" as="geometry" />
        </mxCell>
        <mxCell id="sRxDGYlUYKqpkMH8Nx76-27" value="" style="shape=image;html=1;verticalAlign=top;verticalLabelPosition=bottom;labelBackgroundColor=#ffffff;imageAspect=0;aspect=fixed;image=https://cdn0.iconfinder.com/data/icons/octicons/1024/primitive-dot-128.png" vertex="1" parent="1">
          <mxGeometry x="484.5" y="133.27999999999994" width="10" height="10" as="geometry" />
        </mxCell>
        <mxCell id="sRxDGYlUYKqpkMH8Nx76-28" value="" style="shape=image;html=1;verticalAlign=top;verticalLabelPosition=bottom;labelBackgroundColor=#ffffff;imageAspect=0;aspect=fixed;image=https://cdn0.iconfinder.com/data/icons/octicons/1024/primitive-dot-128.png" vertex="1" parent="1">
          <mxGeometry x="507.5" y="174.95" width="10" height="10" as="geometry" />
        </mxCell>
        <mxCell id="sRxDGYlUYKqpkMH8Nx76-35" value="" style="endArrow=none;html=1;rounded=0;endSize=6;sourcePerimeterSpacing=6;targetPerimeterSpacing=0;" edge="1" parent="1">
          <mxGeometry width="50" height="50" relative="1" as="geometry">
            <mxPoint x="432.3899999999999" y="220.09000000000003" as="sourcePoint" />
            <mxPoint x="457.3899999999999" y="220.09000000000003" as="targetPoint" />
            <Array as="points" />
          </mxGeometry>
        </mxCell>
        <mxCell id="sRxDGYlUYKqpkMH8Nx76-36" value="" style="endArrow=none;html=1;rounded=0;endSize=5;sourcePerimeterSpacing=6;targetPerimeterSpacing=1;entryX=1;entryY=0.645;entryDx=0;entryDy=0;entryPerimeter=0;" edge="1" parent="1" target="sRxDGYlUYKqpkMH8Nx76-19">
          <mxGeometry width="50" height="50" relative="1" as="geometry">
            <mxPoint x="457.25" y="219.36999999999978" as="sourcePoint" />
            <mxPoint x="487.25" y="169.36999999999995" as="targetPoint" />
          </mxGeometry>
        </mxCell>
        <mxCell id="sRxDGYlUYKqpkMH8Nx76-37" style="edgeStyle=orthogonalEdgeStyle;rounded=0;orthogonalLoop=1;jettySize=auto;html=1;exitX=0;exitY=0.645;exitDx=0;exitDy=0;exitPerimeter=0;endArrow=none;endFill=0;entryX=0.7;entryY=0;entryDx=0;entryDy=0;entryPerimeter=0;" edge="1" parent="1" source="sRxDGYlUYKqpkMH8Nx76-14" target="feGtU5ZcAYylaaCtLsXj-114">
          <mxGeometry relative="1" as="geometry">
            <mxPoint x="417.3499999999999" y="270.95" as="targetPoint" />
            <Array as="points">
              <mxPoint x="433" y="130" />
              <mxPoint x="417" y="130" />
              <mxPoint x="417" y="255" />
            </Array>
            <mxPoint x="417.25" y="221.0900000000001" as="sourcePoint" />
          </mxGeometry>
        </mxCell>
        <mxCell id="sRxDGYlUYKqpkMH8Nx76-38" value="" style="endArrow=none;html=1;rounded=0;" edge="1" parent="1">
          <mxGeometry width="50" height="50" relative="1" as="geometry">
            <mxPoint x="432" y="270" as="sourcePoint" />
            <mxPoint x="432" y="220" as="targetPoint" />
          </mxGeometry>
        </mxCell>
        <mxCell id="sRxDGYlUYKqpkMH8Nx76-39" value="C&lt;sub&gt;AB&lt;/sub&gt;" style="pointerEvents=1;verticalLabelPosition=top;shadow=0;dashed=0;align=center;html=1;verticalAlign=bottom;shape=mxgraph.electrical.capacitors.capacitor_1;rotation=90;fontFamily=Times New Roman;fontSize=18;horizontal=0;labelPosition=center;" vertex="1" parent="1">
          <mxGeometry x="90" y="690" width="60" height="20" as="geometry" />
        </mxCell>
        <mxCell id="sRxDGYlUYKqpkMH8Nx76-40" value="C&lt;sub&gt;CD&lt;/sub&gt;" style="pointerEvents=1;verticalLabelPosition=top;shadow=0;dashed=0;align=center;html=1;verticalAlign=bottom;shape=mxgraph.electrical.capacitors.capacitor_1;rotation=90;fontFamily=Times New Roman;fontSize=18;horizontal=0;labelPosition=center;" vertex="1" parent="1">
          <mxGeometry x="290" y="690" width="60" height="20" as="geometry" />
        </mxCell>
        <mxCell id="sRxDGYlUYKqpkMH8Nx76-46" style="edgeStyle=orthogonalEdgeStyle;rounded=0;orthogonalLoop=1;jettySize=auto;html=1;exitX=0;exitY=0.5;exitDx=0;exitDy=0;exitPerimeter=0;entryX=0;entryY=0.5;entryDx=0;entryDy=0;entryPerimeter=0;endArrow=none;endFill=0;" edge="1" parent="1" source="sRxDGYlUYKqpkMH8Nx76-41" target="sRxDGYlUYKqpkMH8Nx76-39">
          <mxGeometry relative="1" as="geometry" />
        </mxCell>
        <mxCell id="sRxDGYlUYKqpkMH8Nx76-47" style="edgeStyle=orthogonalEdgeStyle;rounded=0;orthogonalLoop=1;jettySize=auto;html=1;exitX=1;exitY=0.5;exitDx=0;exitDy=0;exitPerimeter=0;entryX=0;entryY=0.5;entryDx=0;entryDy=0;entryPerimeter=0;endArrow=none;endFill=0;" edge="1" parent="1" source="sRxDGYlUYKqpkMH8Nx76-41" target="sRxDGYlUYKqpkMH8Nx76-40">
          <mxGeometry relative="1" as="geometry" />
        </mxCell>
        <mxCell id="sRxDGYlUYKqpkMH8Nx76-41" value="C&lt;sub&gt;AC&lt;/sub&gt;" style="pointerEvents=1;verticalLabelPosition=top;shadow=0;dashed=0;align=center;html=1;verticalAlign=bottom;shape=mxgraph.electrical.capacitors.capacitor_1;rotation=0;fontFamily=Times New Roman;fontSize=18;horizontal=1;labelPosition=center;" vertex="1" parent="1">
          <mxGeometry x="190" y="628" width="60" height="23" as="geometry" />
        </mxCell>
        <mxCell id="sRxDGYlUYKqpkMH8Nx76-48" style="edgeStyle=orthogonalEdgeStyle;rounded=0;orthogonalLoop=1;jettySize=auto;html=1;exitX=1;exitY=0.5;exitDx=0;exitDy=0;exitPerimeter=0;entryX=1;entryY=0.5;entryDx=0;entryDy=0;entryPerimeter=0;endArrow=none;endFill=0;" edge="1" parent="1" source="sRxDGYlUYKqpkMH8Nx76-42" target="sRxDGYlUYKqpkMH8Nx76-40">
          <mxGeometry relative="1" as="geometry" />
        </mxCell>
        <mxCell id="sRxDGYlUYKqpkMH8Nx76-49" style="edgeStyle=orthogonalEdgeStyle;rounded=0;orthogonalLoop=1;jettySize=auto;html=1;exitX=0;exitY=0.5;exitDx=0;exitDy=0;exitPerimeter=0;entryX=1;entryY=0.5;entryDx=0;entryDy=0;entryPerimeter=0;endArrow=none;endFill=0;" edge="1" parent="1" source="sRxDGYlUYKqpkMH8Nx76-42" target="sRxDGYlUYKqpkMH8Nx76-39">
          <mxGeometry relative="1" as="geometry" />
        </mxCell>
        <mxCell id="sRxDGYlUYKqpkMH8Nx76-42" value="C&lt;span style=&quot;font-size: 15px&quot;&gt;BD&lt;/span&gt;" style="pointerEvents=1;verticalLabelPosition=top;shadow=0;dashed=0;align=center;html=1;verticalAlign=bottom;shape=mxgraph.electrical.capacitors.capacitor_1;rotation=0;fontFamily=Times New Roman;fontSize=18;horizontal=1;labelPosition=center;" vertex="1" parent="1">
          <mxGeometry x="160" y="750" width="60" height="20" as="geometry" />
        </mxCell>
        <mxCell id="sRxDGYlUYKqpkMH8Nx76-70" style="edgeStyle=orthogonalEdgeStyle;rounded=0;jumpStyle=arc;orthogonalLoop=1;jettySize=auto;html=1;exitX=0;exitY=0.5;exitDx=0;exitDy=0;exitPerimeter=0;entryX=0.5;entryY=0;entryDx=0;entryDy=0;entryPerimeter=0;endArrow=none;endFill=0;" edge="1" parent="1" target="sRxDGYlUYKqpkMH8Nx76-68">
          <mxGeometry relative="1" as="geometry">
            <mxPoint x="86.01923788646695" y="639" as="sourcePoint" />
          </mxGeometry>
        </mxCell>
        <mxCell id="sRxDGYlUYKqpkMH8Nx76-43" value="C&lt;sub&gt;AD&lt;/sub&gt;" style="pointerEvents=1;verticalLabelPosition=top;shadow=0;dashed=0;align=center;html=1;verticalAlign=middle;shape=mxgraph.electrical.capacitors.capacitor_1;rotation=30;fontFamily=Times New Roman;fontSize=18;horizontal=1;labelPosition=center;" vertex="1" parent="1">
          <mxGeometry x="116" y="644" width="60" height="20" as="geometry" />
        </mxCell>
        <mxCell id="sRxDGYlUYKqpkMH8Nx76-44" value="C&lt;sub&gt;BC&lt;/sub&gt;" style="pointerEvents=1;verticalLabelPosition=top;shadow=0;dashed=0;align=center;html=1;verticalAlign=middle;shape=mxgraph.electrical.capacitors.capacitor_1;rotation=-30;fontFamily=Times New Roman;fontSize=18;horizontal=1;labelPosition=center;" vertex="1" parent="1">
          <mxGeometry x="264.00076211353314" y="645.0002540378445" width="60" height="20" as="geometry" />
        </mxCell>
        <mxCell id="sRxDGYlUYKqpkMH8Nx76-54" value="" style="endArrow=none;html=1;rounded=0;entryX=0;entryY=0.5;entryDx=0;entryDy=0;entryPerimeter=0;jumpStyle=arc;" edge="1" parent="1" target="sRxDGYlUYKqpkMH8Nx76-44">
          <mxGeometry width="50" height="50" relative="1" as="geometry">
            <mxPoint x="120" y="760" as="sourcePoint" />
            <mxPoint x="310" y="640" as="targetPoint" />
          </mxGeometry>
        </mxCell>
        <mxCell id="sRxDGYlUYKqpkMH8Nx76-55" value="" style="endArrow=none;html=1;rounded=0;jumpStyle=arc;exitX=1;exitY=0.5;exitDx=0;exitDy=0;exitPerimeter=0;" edge="1" parent="1" source="sRxDGYlUYKqpkMH8Nx76-43">
          <mxGeometry width="50" height="50" relative="1" as="geometry">
            <mxPoint x="260" y="690" as="sourcePoint" />
            <mxPoint x="320" y="760" as="targetPoint" />
          </mxGeometry>
        </mxCell>
        <mxCell id="sRxDGYlUYKqpkMH8Nx76-56" value="" style="pointerEvents=1;verticalLabelPosition=bottom;shadow=0;dashed=0;align=center;html=1;verticalAlign=top;shape=mxgraph.electrical.signal_sources.signal_ground;fontSize=16;" vertex="1" parent="1">
          <mxGeometry x="530" y="190" width="27.5" height="20" as="geometry" />
        </mxCell>
        <mxCell id="sRxDGYlUYKqpkMH8Nx76-57" value="" style="pointerEvents=1;verticalLabelPosition=bottom;shadow=0;dashed=0;align=center;html=1;verticalAlign=top;shape=mxgraph.electrical.signal_sources.signal_ground;fontSize=16;" vertex="1" parent="1">
          <mxGeometry x="690.5" y="190" width="27.5" height="20" as="geometry" />
        </mxCell>
        <mxCell id="sRxDGYlUYKqpkMH8Nx76-58" value="&lt;font style=&quot;font-size: 11px&quot;&gt;Pri.GND&lt;/font&gt;" style="text;html=1;align=center;verticalAlign=middle;resizable=0;points=[];autosize=1;strokeColor=none;fillColor=none;fontSize=16;" vertex="1" parent="1">
          <mxGeometry x="540" y="195" width="60" height="30" as="geometry" />
        </mxCell>
        <mxCell id="sRxDGYlUYKqpkMH8Nx76-59" value="&lt;font style=&quot;font-size: 11px&quot;&gt;Sec.GND&lt;/font&gt;" style="text;html=1;align=center;verticalAlign=middle;resizable=0;points=[];autosize=1;strokeColor=none;fillColor=none;fontSize=16;" vertex="1" parent="1">
          <mxGeometry x="648" y="195" width="60" height="30" as="geometry" />
        </mxCell>
        <mxCell id="sRxDGYlUYKqpkMH8Nx76-61" value="" style="pointerEvents=1;verticalLabelPosition=bottom;shadow=0;dashed=0;align=center;html=1;verticalAlign=top;shape=mxgraph.electrical.signal_sources.signal_ground;fontSize=16;" vertex="1" parent="1">
          <mxGeometry x="279.5" y="761" width="27.5" height="20" as="geometry" />
        </mxCell>
        <mxCell id="sRxDGYlUYKqpkMH8Nx76-63" value="&lt;font style=&quot;font-size: 11px&quot;&gt;Sec.GND&lt;/font&gt;" style="text;html=1;align=center;verticalAlign=middle;resizable=0;points=[];autosize=1;strokeColor=none;fillColor=none;fontSize=16;" vertex="1" parent="1">
          <mxGeometry x="237" y="766" width="60" height="30" as="geometry" />
        </mxCell>
        <mxCell id="sRxDGYlUYKqpkMH8Nx76-64" value="A" style="text;html=1;align=center;verticalAlign=middle;resizable=0;points=[];autosize=1;strokeColor=none;fillColor=none;" vertex="1" parent="1">
          <mxGeometry x="110" y="620" width="20" height="20" as="geometry" />
        </mxCell>
        <mxCell id="sRxDGYlUYKqpkMH8Nx76-65" value="B" style="text;html=1;align=center;verticalAlign=middle;resizable=0;points=[];autosize=1;strokeColor=none;fillColor=none;" vertex="1" parent="1">
          <mxGeometry x="110" y="761" width="20" height="20" as="geometry" />
        </mxCell>
        <mxCell id="sRxDGYlUYKqpkMH8Nx76-66" value="D" style="text;html=1;align=center;verticalAlign=middle;resizable=0;points=[];autosize=1;strokeColor=none;fillColor=none;" vertex="1" parent="1">
          <mxGeometry x="320" y="761" width="20" height="20" as="geometry" />
        </mxCell>
        <mxCell id="sRxDGYlUYKqpkMH8Nx76-67" value="C" style="text;html=1;align=center;verticalAlign=middle;resizable=0;points=[];autosize=1;strokeColor=none;fillColor=none;" vertex="1" parent="1">
          <mxGeometry x="320" y="620" width="20" height="20" as="geometry" />
        </mxCell>
        <mxCell id="sRxDGYlUYKqpkMH8Nx76-68" value="" style="pointerEvents=1;verticalLabelPosition=bottom;shadow=0;dashed=0;align=center;html=1;verticalAlign=top;shape=mxgraph.electrical.signal_sources.signal_ground;fontSize=16;" vertex="1" parent="1">
          <mxGeometry x="31" y="761" width="27.5" height="20" as="geometry" />
        </mxCell>
        <mxCell id="sRxDGYlUYKqpkMH8Nx76-69" value="&lt;font style=&quot;font-size: 11px&quot;&gt;Pri.GND&lt;/font&gt;" style="text;html=1;align=center;verticalAlign=middle;resizable=0;points=[];autosize=1;strokeColor=none;fillColor=none;fontSize=16;" vertex="1" parent="1">
          <mxGeometry x="41" y="766" width="60" height="30" as="geometry" />
        </mxCell>
        <mxCell id="sRxDGYlUYKqpkMH8Nx76-73" style="edgeStyle=orthogonalEdgeStyle;rounded=0;jumpStyle=arc;orthogonalLoop=1;jettySize=auto;html=1;exitX=0;exitY=0.645;exitDx=0;exitDy=0;exitPerimeter=0;entryX=0;entryY=0.5;entryDx=0;entryDy=0;entryPerimeter=0;endArrow=none;endFill=0;" edge="1" parent="1" source="sRxDGYlUYKqpkMH8Nx76-71" target="sRxDGYlUYKqpkMH8Nx76-43">
          <mxGeometry relative="1" as="geometry" />
        </mxCell>
        <mxCell id="sRxDGYlUYKqpkMH8Nx76-76" style="edgeStyle=orthogonalEdgeStyle;rounded=0;jumpStyle=arc;orthogonalLoop=1;jettySize=auto;html=1;exitX=1;exitY=0.645;exitDx=0;exitDy=0;exitPerimeter=0;endArrow=none;endFill=0;" edge="1" parent="1" source="sRxDGYlUYKqpkMH8Nx76-71">
          <mxGeometry relative="1" as="geometry">
            <mxPoint x="120" y="760" as="targetPoint" />
            <Array as="points">
              <mxPoint x="74" y="760" />
            </Array>
          </mxGeometry>
        </mxCell>
        <mxCell id="sRxDGYlUYKqpkMH8Nx76-71" value="" style="pointerEvents=1;verticalLabelPosition=bottom;shadow=0;dashed=0;align=center;html=1;verticalAlign=top;shape=mxgraph.electrical.inductors.inductor_5;rotation=90;" vertex="1" parent="1">
          <mxGeometry x="41" y="690" width="69" height="12" as="geometry" />
        </mxCell>
        <mxCell id="sRxDGYlUYKqpkMH8Nx76-74" style="edgeStyle=orthogonalEdgeStyle;rounded=0;jumpStyle=arc;orthogonalLoop=1;jettySize=auto;html=1;exitX=0;exitY=0.645;exitDx=0;exitDy=0;exitPerimeter=0;entryX=1;entryY=0.5;entryDx=0;entryDy=0;entryPerimeter=0;endArrow=none;endFill=0;" edge="1" parent="1" source="sRxDGYlUYKqpkMH8Nx76-72" target="sRxDGYlUYKqpkMH8Nx76-44">
          <mxGeometry relative="1" as="geometry">
            <Array as="points">
              <mxPoint x="353" y="640" />
            </Array>
          </mxGeometry>
        </mxCell>
        <mxCell id="sRxDGYlUYKqpkMH8Nx76-75" style="edgeStyle=orthogonalEdgeStyle;rounded=0;jumpStyle=arc;orthogonalLoop=1;jettySize=auto;html=1;exitX=1;exitY=0.645;exitDx=0;exitDy=0;exitPerimeter=0;endArrow=none;endFill=0;entryX=0;entryY=-0.017;entryDx=0;entryDy=0;entryPerimeter=0;" edge="1" parent="1">
          <mxGeometry relative="1" as="geometry">
            <mxPoint x="320" y="759.6600000000001" as="targetPoint" />
            <mxPoint x="352.76" y="729.5" as="sourcePoint" />
            <Array as="points">
              <mxPoint x="353" y="760" />
              <mxPoint x="320" y="760" />
            </Array>
          </mxGeometry>
        </mxCell>
        <mxCell id="sRxDGYlUYKqpkMH8Nx76-72" value="" style="pointerEvents=1;verticalLabelPosition=bottom;shadow=0;dashed=0;align=center;html=1;verticalAlign=top;shape=mxgraph.electrical.inductors.inductor_5;rotation=90;" vertex="1" parent="1">
          <mxGeometry x="320" y="690" width="69" height="12" as="geometry" />
        </mxCell>
      </root>
    </mxGraphModel>
  </diagram>
</mxfile>
